<svg width="152" height="35" viewBox="0 0 152 35" fill="none" xmlns="http://www.w3.org/2000/svg">
<path d="M12.1816 14.2436C12.0951 13.4346 11.7307 12.8047 11.0885 12.3539C10.4524 11.9031 9.62482 11.6776 8.60583 11.6776C7.88945 11.6776 7.27497 11.7857 6.76238 12.0019C6.2498 12.218 5.85764 12.5114 5.58591 12.8819C5.31418 13.2524 5.17523 13.6755 5.16905 14.151C5.16905 14.5463 5.2586 14.889 5.4377 15.1793C5.62297 15.4695 5.87308 15.7165 6.18804 15.9203C6.503 16.118 6.85193 16.2847 7.23482 16.4206C7.61772 16.5564 8.0037 16.6707 8.39277 16.7633L10.1714 17.208C10.8877 17.3747 11.5763 17.6001 12.2371 17.8842C12.9041 18.1683 13.5001 18.5265 14.025 18.9588C14.5561 19.3911 14.9761 19.9129 15.2848 20.5243C15.5936 21.1357 15.748 21.8521 15.748 22.6735C15.748 23.7851 15.4639 24.7639 14.8958 25.61C14.3276 26.4499 13.5062 27.1076 12.4317 27.5831C11.3633 28.0525 10.0695 28.2872 8.55025 28.2872C7.07426 28.2872 5.7928 28.0587 4.70588 27.6017C3.62513 27.1447 2.77906 26.4777 2.16767 25.6007C1.56245 24.7238 1.23514 23.6554 1.18573 22.3956H4.56692C4.61633 23.0564 4.82013 23.606 5.17832 24.0445C5.53651 24.4829 6.00277 24.8103 6.57711 25.0264C7.15763 25.2426 7.80608 25.3506 8.52246 25.3506C9.26971 25.3506 9.92434 25.2395 10.4863 25.0171C11.0545 24.7886 11.4991 24.4737 11.8203 24.0723C12.1414 23.6647 12.3051 23.1891 12.3112 22.6457C12.3051 22.1516 12.1599 21.744 11.8759 21.4229C11.5918 21.0956 11.1934 20.8238 10.6809 20.6077C10.1745 20.3854 9.58159 20.1877 8.90226 20.0148L6.74386 19.459C5.18141 19.0576 3.94627 18.4493 3.03844 17.6341C2.13679 16.8127 1.68596 15.7227 1.68596 14.3641C1.68596 13.2463 1.98857 12.2674 2.59379 11.4275C3.20518 10.5876 4.03582 9.9361 5.08568 9.47292C6.13555 9.00357 7.32437 8.76889 8.65215 8.76889C9.99845 8.76889 11.178 9.00357 12.1908 9.47292C13.2098 9.9361 14.0096 10.5815 14.5901 11.409C15.1706 12.2304 15.4701 13.1753 15.4886 14.2436H12.1816ZM21.7148 28.2872C20.8131 28.2872 20.001 28.1266 19.2784 27.8055C18.5621 27.4782 17.9939 26.9964 17.574 26.3604C17.1602 25.7243 16.9533 24.9399 16.9533 24.0074C16.9533 23.2046 17.1015 22.5407 17.3979 22.0158C17.6944 21.4908 18.0989 21.0709 18.6115 20.7559C19.1241 20.441 19.7015 20.2032 20.3438 20.0426C20.9922 19.8759 21.6623 19.7555 22.3539 19.6813C23.1877 19.5949 23.8639 19.5177 24.3827 19.4498C24.9014 19.3756 25.2781 19.2645 25.5128 19.1163C25.7537 18.9619 25.8741 18.7241 25.8741 18.403V18.3474C25.8741 17.6495 25.6672 17.1092 25.2534 16.7263C24.8397 16.3434 24.2437 16.1519 23.4656 16.1519C22.6442 16.1519 21.9927 16.331 21.511 16.6892C21.0354 17.0474 20.7143 17.4704 20.5475 17.9583L17.4165 17.5137C17.6635 16.6491 18.0711 15.9265 18.6393 15.346C19.2074 14.7593 19.9022 14.3208 20.7236 14.0306C21.5449 13.7342 22.4527 13.5859 23.447 13.5859C24.1325 13.5859 24.815 13.6662 25.4943 13.8268C26.1736 13.9874 26.7943 14.2529 27.3562 14.6234C27.9182 14.9878 28.3691 15.485 28.7087 16.1149C29.0546 16.7448 29.2275 17.5322 29.2275 18.4771V28H26.0038V26.0454H25.8926C25.6888 26.4406 25.4016 26.8112 25.0311 27.157C24.6667 27.4967 24.2066 27.7715 23.6508 27.9815C23.1012 28.1853 22.4558 28.2872 21.7148 28.2872ZM22.5855 25.8231C23.2587 25.8231 23.8423 25.6903 24.3363 25.4247C24.8304 25.153 25.2102 24.7948 25.4758 24.3502C25.7475 23.9055 25.8833 23.4207 25.8833 22.8958V21.2191C25.7784 21.3055 25.5993 21.3858 25.3461 21.4599C25.099 21.534 24.8211 21.5989 24.5123 21.6545C24.2036 21.7101 23.8979 21.7595 23.5953 21.8027C23.2926 21.8459 23.0302 21.883 22.8079 21.9139C22.3076 21.9818 21.8599 22.0929 21.4646 22.2473C21.0694 22.4017 20.7575 22.6179 20.529 22.8958C20.3005 23.1675 20.1863 23.5195 20.1863 23.9518C20.1863 24.5694 20.4117 25.0357 20.8625 25.3506C21.3133 25.6656 21.8877 25.8231 22.5855 25.8231ZM34.9094 19.6628V28H31.556V13.7712H34.7612V16.189H34.9279C35.2552 15.3923 35.7771 14.7593 36.4934 14.29C37.216 13.8206 38.1084 13.5859 39.1706 13.5859C40.1525 13.5859 41.0079 13.7959 41.7366 14.2159C42.4715 14.6358 43.0397 15.2441 43.4411 16.0408C43.8487 16.8374 44.0494 17.8039 44.0432 18.9403V28H40.6898V19.459C40.6898 18.508 40.4428 17.7638 39.9487 17.2265C39.4609 16.6892 38.7846 16.4206 37.92 16.4206C37.3333 16.4206 36.8115 16.5503 36.3545 16.8096C35.9037 17.0628 35.5486 17.4303 35.2892 17.912C35.036 18.3937 34.9094 18.9773 34.9094 19.6628ZM53.5139 13.7712V16.365H45.3342V13.7712H53.5139ZM47.3536 10.3622H50.707V23.7202C50.707 24.1711 50.775 24.5169 50.9108 24.7578C51.0529 24.9924 51.2381 25.153 51.4666 25.2395C51.6951 25.3259 51.9483 25.3692 52.2263 25.3692C52.4362 25.3692 52.6277 25.3537 52.8006 25.3228C52.9797 25.292 53.1156 25.2642 53.2082 25.2395L53.7733 27.861C53.5942 27.9228 53.3379 27.9907 53.0044 28.0648C52.6771 28.139 52.2757 28.1822 51.8001 28.1945C50.9602 28.2192 50.2037 28.0926 49.5306 27.8147C48.8574 27.5306 48.3232 27.0922 47.928 26.4993C47.5389 25.9064 47.3475 25.1654 47.3536 24.2761V10.3622ZM64.344 22.0158V13.7712H67.6974V28H64.4459V25.4711H64.2977C63.9765 26.2677 63.4485 26.9193 62.7136 27.4257C61.9849 27.9321 61.0863 28.1853 60.0179 28.1853C59.0854 28.1853 58.2609 27.9784 57.5445 27.5646C56.8343 27.1447 56.2785 26.5364 55.8771 25.7397C55.4757 24.9369 55.275 23.9673 55.275 22.8309V13.7712H58.6284V22.3122C58.6284 23.2138 58.8754 23.9302 59.3695 24.4613C59.8635 24.9924 60.512 25.258 61.3148 25.258C61.8089 25.258 62.2875 25.1376 62.7507 24.8967C63.2138 24.6559 63.5936 24.2977 63.8901 23.8221C64.1927 23.3404 64.344 22.7383 64.344 22.0158ZM81.3482 17.5322L78.2913 17.8657C78.2048 17.5569 78.0535 17.2666 77.8373 16.9949C77.6274 16.7232 77.3433 16.5039 76.9851 16.3372C76.6269 16.1705 76.1884 16.0871 75.6697 16.0871C74.9718 16.0871 74.3851 16.2384 73.9096 16.541C73.4403 16.8436 73.2087 17.2358 73.2148 17.7175C73.2087 18.1312 73.36 18.4678 73.6688 18.7272C73.9837 18.9866 74.5025 19.1996 75.225 19.3664L77.6521 19.8851C78.9984 20.1754 79.9988 20.6355 80.6535 21.2654C81.3143 21.8953 81.6477 22.7198 81.6539 23.7388C81.6477 24.6342 81.3853 25.4247 80.8665 26.1102C80.3539 26.7896 79.6406 27.3207 78.7266 27.7036C77.8126 28.0865 76.7628 28.2779 75.577 28.2779C73.8355 28.2779 72.4336 27.9135 71.3714 27.1848C70.3092 26.4499 69.6762 25.4278 69.4724 24.1186L72.7424 23.8036C72.8906 24.4459 73.2056 24.9307 73.6873 25.258C74.169 25.5853 74.7958 25.749 75.5678 25.749C76.3644 25.749 77.0036 25.5853 77.4853 25.258C77.9732 24.9307 78.2172 24.5262 78.2172 24.0445C78.2172 23.6369 78.0597 23.3003 77.7447 23.0347C77.4359 22.7692 76.9542 22.5654 76.2996 22.4233L73.8726 21.9139C72.5077 21.6298 71.498 21.1512 70.8434 20.478C70.1888 19.7987 69.8645 18.9403 69.8707 17.9027C69.8645 17.0258 70.1023 16.2662 70.584 15.6239C71.0719 14.9755 71.7481 14.4752 72.6127 14.1232C73.4835 13.765 74.487 13.5859 75.6234 13.5859C77.2908 13.5859 78.6031 13.941 79.5604 14.6512C80.5238 15.3614 81.1197 16.3218 81.3482 17.5322ZM95.3799 28H88.951V9.02827H95.5096C97.3932 9.02827 99.0112 9.40808 100.364 10.1677C101.722 10.9211 102.766 12.005 103.495 13.4192C104.223 14.8334 104.588 16.5256 104.588 18.4956C104.588 20.4718 104.22 22.1701 103.485 23.5906C102.757 25.011 101.704 26.101 100.327 26.8606C98.9556 27.6202 97.3067 28 95.3799 28ZM92.3878 25.0264H95.2132C96.5348 25.0264 97.6371 24.7856 98.5202 24.3038C99.4034 23.816 100.067 23.0903 100.512 22.1269C100.957 21.1573 101.179 19.9469 101.179 18.4956C101.179 17.0443 100.957 15.8401 100.512 14.8828C100.067 13.9194 99.4095 13.2 98.5388 12.7244C97.6742 12.2427 96.5996 12.0019 95.3151 12.0019H92.3878V25.0264ZM110.756 28.2872C109.854 28.2872 109.042 28.1266 108.32 27.8055C107.603 27.4782 107.035 26.9964 106.615 26.3604C106.201 25.7243 105.995 24.9399 105.995 24.0074C105.995 23.2046 106.143 22.5407 106.439 22.0158C106.736 21.4908 107.14 21.0709 107.653 20.7559C108.165 20.441 108.743 20.2032 109.385 20.0426C110.034 19.8759 110.704 19.7555 111.395 19.6813C112.229 19.5949 112.905 19.5177 113.424 19.4498C113.943 19.3756 114.319 19.2645 114.554 19.1163C114.795 18.9619 114.915 18.7241 114.915 18.403V18.3474C114.915 17.6495 114.709 17.1092 114.295 16.7263C113.881 16.3434 113.285 16.1519 112.507 16.1519C111.686 16.1519 111.034 16.331 110.552 16.6892C110.077 17.0474 109.756 17.4704 109.589 17.9583L106.458 17.5137C106.705 16.6491 107.112 15.9265 107.681 15.346C108.249 14.7593 108.944 14.3208 109.765 14.0306C110.586 13.7342 111.494 13.5859 112.488 13.5859C113.174 13.5859 113.856 13.6662 114.536 13.8268C115.215 13.9874 115.836 14.2529 116.398 14.6234C116.96 14.9878 117.41 15.485 117.75 16.1149C118.096 16.7448 118.269 17.5322 118.269 18.4771V28H115.045V26.0454H114.934C114.73 26.4406 114.443 26.8112 114.072 27.157C113.708 27.4967 113.248 27.7715 112.692 27.9815C112.143 28.1853 111.497 28.2872 110.756 28.2872ZM111.627 25.8231C112.3 25.8231 112.884 25.6903 113.378 25.4247C113.872 25.153 114.252 24.7948 114.517 24.3502C114.789 23.9055 114.925 23.4207 114.925 22.8958V21.2191C114.82 21.3055 114.641 21.3858 114.387 21.4599C114.14 21.534 113.862 21.5989 113.554 21.6545C113.245 21.7101 112.939 21.7595 112.637 21.8027C112.334 21.8459 112.071 21.883 111.849 21.9139C111.349 21.9818 110.901 22.0929 110.506 22.2473C110.111 22.4017 109.799 22.6179 109.57 22.8958C109.342 23.1675 109.228 23.5195 109.228 23.9518C109.228 24.5694 109.453 25.0357 109.904 25.3506C110.355 25.6656 110.929 25.8231 111.627 25.8231ZM127.702 13.7712V16.365H119.523V13.7712H127.702ZM121.542 10.3622H124.896V23.7202C124.896 24.1711 124.964 24.5169 125.099 24.7578C125.241 24.9924 125.427 25.153 125.655 25.2395C125.884 25.3259 126.137 25.3692 126.415 25.3692C126.625 25.3692 126.816 25.3537 126.989 25.3228C127.168 25.292 127.304 25.2642 127.397 25.2395L127.962 27.861C127.783 27.9228 127.526 27.9907 127.193 28.0648C126.866 28.139 126.464 28.1822 125.989 28.1945C125.149 28.2192 124.392 28.0926 123.719 27.8147C123.046 27.5306 122.512 27.0922 122.117 26.4993C121.727 25.9064 121.536 25.1654 121.542 24.2761V10.3622ZM136.569 13.7712V16.365H128.389V13.7712H136.569ZM130.408 10.3622H133.762V23.7202C133.762 24.1711 133.83 24.5169 133.966 24.7578C134.108 24.9924 134.293 25.153 134.521 25.2395C134.75 25.3259 135.003 25.3692 135.281 25.3692C135.491 25.3692 135.682 25.3537 135.855 25.3228C136.034 25.292 136.17 25.2642 136.263 25.2395L136.828 27.861C136.649 27.9228 136.393 27.9907 136.059 28.0648C135.732 28.139 135.33 28.1822 134.855 28.1945C134.015 28.2192 133.258 28.0926 132.585 27.8147C131.912 27.5306 131.378 27.0922 130.983 26.4993C130.594 25.9064 130.402 25.1654 130.408 24.2761V10.3622ZM142.424 28.2872C141.523 28.2872 140.71 28.1266 139.988 27.8055C139.272 27.4782 138.703 26.9964 138.283 26.3604C137.87 25.7243 137.663 24.9399 137.663 24.0074C137.663 23.2046 137.811 22.5407 138.107 22.0158C138.404 21.4908 138.808 21.0709 139.321 20.7559C139.834 20.441 140.411 20.2032 141.053 20.0426C141.702 19.8759 142.372 19.7555 143.063 19.6813C143.897 19.5949 144.573 19.5177 145.092 19.4498C145.611 19.3756 145.988 19.2645 146.222 19.1163C146.463 18.9619 146.584 18.7241 146.584 18.403V18.3474C146.584 17.6495 146.377 17.1092 145.963 16.7263C145.549 16.3434 144.953 16.1519 144.175 16.1519C143.354 16.1519 142.702 16.331 142.22 16.6892C141.745 17.0474 141.424 17.4704 141.257 17.9583L138.126 17.5137C138.373 16.6491 138.781 15.9265 139.349 15.346C139.917 14.7593 140.612 14.3208 141.433 14.0306C142.254 13.7342 143.162 13.5859 144.157 13.5859C144.842 13.5859 145.524 13.6662 146.204 13.8268C146.883 13.9874 147.504 14.2529 148.066 14.6234C148.628 14.9878 149.079 15.485 149.418 16.1149C149.764 16.7448 149.937 17.5322 149.937 18.4771V28H146.713V26.0454H146.602C146.398 26.4406 146.111 26.8112 145.741 27.157C145.376 27.4967 144.916 27.7715 144.36 27.9815C143.811 28.1853 143.165 28.2872 142.424 28.2872ZM143.295 25.8231C143.968 25.8231 144.552 25.6903 145.046 25.4247C145.54 25.153 145.92 24.7948 146.185 24.3502C146.457 23.9055 146.593 23.4207 146.593 22.8958V21.2191C146.488 21.3055 146.309 21.3858 146.056 21.4599C145.809 21.534 145.531 21.5989 145.222 21.6545C144.913 21.7101 144.607 21.7595 144.305 21.8027C144.002 21.8459 143.74 21.883 143.517 21.9139C143.017 21.9818 142.569 22.0929 142.174 22.2473C141.779 22.4017 141.467 22.6179 141.238 22.8958C141.01 23.1675 140.896 23.5195 140.896 23.9518C140.896 24.5694 141.121 25.0357 141.572 25.3506C142.023 25.6656 142.597 25.8231 143.295 25.8231Z" fill="#2F2F2F"/>
<path fill-rule="evenodd" clip-rule="evenodd" d="M104.518 9.60851C104.775 7.52564 105.066 5.43676 106.053 3.55664C106.301 3.08468 107.031 1.83002 107.732 2.35874C108.367 2.83811 107.984 3.97002 107.726 4.5421C106.896 6.38416 105.514 7.85888 104.518 9.60851Z" fill="#FD561D" stroke="#FD561D" stroke-width="0.69378" stroke-miterlimit="1.5" stroke-linecap="round" stroke-linejoin="round"/>
<path fill-rule="evenodd" clip-rule="evenodd" d="M102.315 9.18221C101.571 7.21962 100.856 5.23551 100.854 3.11204C100.853 2.57901 100.914 1.12897 101.781 1.27028C102.566 1.39844 102.754 2.57859 102.793 3.20486C102.917 5.22145 102.381 7.17 102.315 9.18221Z" fill="#FD561D" stroke="#FD561D" stroke-width="0.69378" stroke-miterlimit="1.5" stroke-linecap="round" stroke-linejoin="round"/>
<path fill-rule="evenodd" clip-rule="evenodd" d="M105.355 11.2042C107.044 9.80963 108.67 7.89082 110.862 7.39512C111.454 7.26141 113.138 7.23686 113.096 8.21986C113.054 9.17938 112.112 9.51898 111.344 9.75548C109.947 10.1857 108.499 10.3695 107.08 10.7079C106.5 10.8463 105.943 11.0956 105.355 11.2042Z" fill="#FD561D" stroke="#FD561D" stroke-width="0.69378" stroke-miterlimit="1.5" stroke-linecap="round" stroke-linejoin="round"/>
</svg>
