<svg width="87" height="33" viewBox="0 0 87 33" fill="none" xmlns="http://www.w3.org/2000/svg">
<path d="M12.1816 12.2436C12.0951 11.4346 11.7307 10.8047 11.0885 10.3539C10.4524 9.90306 9.62482 9.67764 8.60583 9.67764C7.88945 9.67764 7.27497 9.78572 6.76238 10.0019C6.2498 10.218 5.85764 10.5114 5.58591 10.8819C5.31418 11.2524 5.17523 11.6755 5.16905 12.151C5.16905 12.5463 5.2586 12.889 5.4377 13.1793C5.62297 13.4695 5.87308 13.7165 6.18804 13.9203C6.503 14.118 6.85193 14.2847 7.23482 14.4206C7.61772 14.5564 8.0037 14.6707 8.39277 14.7633L10.1714 15.208C10.8877 15.3747 11.5763 15.6001 12.2371 15.8842C12.9041 16.1683 13.5001 16.5265 14.025 16.9588C14.5561 17.3911 14.9761 17.9129 15.2848 18.5243C15.5936 19.1357 15.748 19.8521 15.748 20.6735C15.748 21.7851 15.4639 22.7639 14.8958 23.61C14.3276 24.4499 13.5062 25.1076 12.4317 25.5831C11.3633 26.0525 10.0695 26.2872 8.55025 26.2872C7.07426 26.2872 5.7928 26.0587 4.70588 25.6017C3.62513 25.1447 2.77906 24.4777 2.16767 23.6007C1.56245 22.7238 1.23514 21.6554 1.18573 20.3956H4.56692C4.61633 21.0564 4.82013 21.606 5.17832 22.0445C5.53651 22.4829 6.00277 22.8103 6.57711 23.0264C7.15763 23.2426 7.80608 23.3506 8.52246 23.3506C9.26971 23.3506 9.92434 23.2395 10.4863 23.0171C11.0545 22.7886 11.4991 22.4737 11.8203 22.0723C12.1414 21.6647 12.3051 21.1891 12.3112 20.6457C12.3051 20.1516 12.1599 19.744 11.8759 19.4229C11.5918 19.0956 11.1934 18.8238 10.6809 18.6077C10.1745 18.3854 9.58159 18.1877 8.90226 18.0148L6.74386 17.459C5.18141 17.0576 3.94627 16.4493 3.03844 15.6341C2.13679 14.8127 1.68596 13.7227 1.68596 12.3641C1.68596 11.2463 1.98857 10.2674 2.59379 9.42753C3.20518 8.58764 4.03582 7.9361 5.08568 7.47292C6.13555 7.00357 7.32437 6.76889 8.65215 6.76889C9.99845 6.76889 11.178 7.00357 12.1908 7.47292C13.2098 7.9361 14.0096 8.58146 14.5901 9.409C15.1706 10.2304 15.4701 11.1753 15.4886 12.2436H12.1816ZM19.686 26.2038C19.1241 26.2038 18.6423 26.0062 18.2409 25.6109C17.8395 25.2157 17.6419 24.734 17.6481 24.1658C17.6419 23.61 17.8395 23.1345 18.2409 22.7392C18.6423 22.344 19.1241 22.1464 19.686 22.1464C20.2295 22.1464 20.7019 22.344 21.1034 22.7392C21.511 23.1345 21.7178 23.61 21.724 24.1658C21.7178 24.5425 21.619 24.8853 21.4276 25.1941C21.2423 25.5029 20.9953 25.7499 20.6865 25.9352C20.3839 26.1143 20.0504 26.2038 19.686 26.2038ZM30.7199 26H24.291V7.02827H30.8496C32.7332 7.02827 34.3512 7.40808 35.7037 8.16769C37.0624 8.92112 38.1061 10.005 38.8348 11.4192C39.5635 12.8334 39.9279 14.5256 39.9279 16.4956C39.9279 18.4718 39.5604 20.1701 38.8255 21.5906C38.0968 23.011 37.0438 24.101 35.6667 24.8606C34.2957 25.6202 32.6467 26 30.7199 26ZM27.7278 23.0264H30.5532C31.8748 23.0264 32.9771 22.7856 33.8603 22.3038C34.7434 21.816 35.4073 21.0903 35.8519 20.1269C36.2966 19.1573 36.5189 17.9469 36.5189 16.4956C36.5189 15.0443 36.2966 13.8401 35.8519 12.8828C35.4073 11.9194 34.7496 11.2 33.8788 10.7244C33.0142 10.2427 31.9396 10.0019 30.6551 10.0019H27.7278V23.0264ZM46.0961 26.2872C45.1945 26.2872 44.3824 26.1266 43.6598 25.8055C42.9434 25.4782 42.3753 24.9964 41.9553 24.3604C41.5415 23.7243 41.3346 22.9399 41.3346 22.0074C41.3346 21.2046 41.4829 20.5407 41.7793 20.0158C42.0757 19.4908 42.4802 19.0709 42.9928 18.7559C43.5054 18.441 44.0828 18.2032 44.7251 18.0426C45.3736 17.8759 46.0436 17.7555 46.7353 17.6813C47.569 17.5949 48.2452 17.5177 48.764 17.4498C49.2828 17.3756 49.6595 17.2645 49.8942 17.1163C50.135 16.9619 50.2554 16.7241 50.2554 16.403V16.3474C50.2554 15.6495 50.0486 15.1092 49.6348 14.7263C49.221 14.3434 48.6251 14.1519 47.8469 14.1519C47.0256 14.1519 46.374 14.331 45.8923 14.6892C45.4168 15.0474 45.0956 15.4704 44.9289 15.9583L41.7978 15.5137C42.0449 14.6491 42.4525 13.9265 43.0206 13.346C43.5888 12.7593 44.2835 12.3208 45.1049 12.0306C45.9263 11.7342 46.8341 11.5859 47.8284 11.5859C48.5139 11.5859 49.1963 11.6662 49.8756 11.8268C50.555 11.9874 51.1756 12.2529 51.7376 12.6234C52.2996 12.9878 52.7504 13.485 53.0901 14.1149C53.4359 14.7448 53.6088 15.5322 53.6088 16.4771V26H50.3851V24.0454H50.274C50.0702 24.4406 49.783 24.8112 49.4125 25.157C49.0481 25.4967 48.588 25.7715 48.0322 25.9815C47.4826 26.1853 46.8372 26.2872 46.0961 26.2872ZM46.9669 23.8231C47.64 23.8231 48.2236 23.6903 48.7177 23.4247C49.2117 23.153 49.5916 22.7948 49.8571 22.3502C50.1288 21.9055 50.2647 21.4207 50.2647 20.8958V19.2191C50.1597 19.3055 49.9806 19.3858 49.7274 19.4599C49.4804 19.534 49.2025 19.5989 48.8937 19.6545C48.5849 19.7101 48.2792 19.7595 47.9766 19.8027C47.674 19.8459 47.4115 19.883 47.1892 19.9139C46.689 19.9818 46.2412 20.0929 45.846 20.2473C45.4507 20.4017 45.1389 20.6179 44.9104 20.8958C44.6819 21.1675 44.5676 21.5195 44.5676 21.9518C44.5676 22.5694 44.793 23.0357 45.2439 23.3506C45.6947 23.6656 46.269 23.8231 46.9669 23.8231ZM63.0425 11.7712V14.365H54.8628V11.7712H63.0425ZM56.8822 8.36222H60.2356V21.7202C60.2356 22.1711 60.3035 22.5169 60.4394 22.7578C60.5814 22.9924 60.7667 23.153 60.9952 23.2395C61.2237 23.3259 61.4769 23.3692 61.7548 23.3692C61.9648 23.3692 62.1562 23.3537 62.3292 23.3228C62.5083 23.292 62.6441 23.2642 62.7368 23.2395L63.3018 25.861C63.1227 25.9228 62.8665 25.9907 62.533 26.0648C62.2057 26.139 61.8042 26.1822 61.3287 26.1945C60.4888 26.2192 59.7323 26.0926 59.0591 25.8147C58.386 25.5306 57.8518 25.0922 57.4565 24.4993C57.0675 23.9064 56.876 23.1654 56.8822 22.2761V8.36222ZM71.9087 11.7712V14.365H63.729V11.7712H71.9087ZM65.7484 8.36222H69.1018V21.7202C69.1018 22.1711 69.1698 22.5169 69.3056 22.7578C69.4477 22.9924 69.6329 23.153 69.8614 23.2395C70.0899 23.3259 70.3431 23.3692 70.621 23.3692C70.831 23.3692 71.0225 23.3537 71.1954 23.3228C71.3745 23.292 71.5103 23.2642 71.603 23.2395L72.1681 25.861C71.989 25.9228 71.7327 25.9907 71.3992 26.0648C71.0719 26.139 70.6705 26.1822 70.1949 26.1945C69.355 26.2192 68.5985 26.0926 67.9254 25.8147C67.2522 25.5306 66.718 25.0922 66.3228 24.4993C65.9337 23.9064 65.7423 23.1654 65.7484 22.2761V8.36222ZM77.7643 26.2872C76.8626 26.2872 76.0505 26.1266 75.3279 25.8055C74.6116 25.4782 74.0434 24.9964 73.6235 24.3604C73.2097 23.7243 73.0028 22.9399 73.0028 22.0074C73.0028 21.2046 73.151 20.5407 73.4474 20.0158C73.7439 19.4908 74.1484 19.0709 74.661 18.7559C75.1736 18.441 75.751 18.2032 76.3933 18.0426C77.0417 17.8759 77.7118 17.7555 78.4034 17.6813C79.2372 17.5949 79.9134 17.5177 80.4322 17.4498C80.9509 17.3756 81.3276 17.2645 81.5623 17.1163C81.8032 16.9619 81.9236 16.7241 81.9236 16.403V16.3474C81.9236 15.6495 81.7167 15.1092 81.3029 14.7263C80.8892 14.3434 80.2932 14.1519 79.5151 14.1519C78.6937 14.1519 78.0422 14.331 77.5605 14.6892C77.0849 15.0474 76.7638 15.4704 76.5971 15.9583L73.466 15.5137C73.713 14.6491 74.1206 13.9265 74.6888 13.346C75.2569 12.7593 75.9517 12.3208 76.7731 12.0306C77.5944 11.7342 78.5023 11.5859 79.4965 11.5859C80.182 11.5859 80.8645 11.6662 81.5438 11.8268C82.2231 11.9874 82.8438 12.2529 83.4058 12.6234C83.9677 12.9878 84.4186 13.485 84.7582 14.1149C85.1041 14.7448 85.277 15.5322 85.277 16.4771V26H82.0533V24.0454H81.9421C81.7383 24.4406 81.4511 24.8112 81.0806 25.157C80.7162 25.4967 80.2561 25.7715 79.7003 25.9815C79.1507 26.1853 78.5053 26.2872 77.7643 26.2872ZM78.635 23.8231C79.3082 23.8231 79.8918 23.6903 80.3858 23.4247C80.8799 23.153 81.2597 22.7948 81.5253 22.3502C81.797 21.9055 81.9328 21.4207 81.9328 20.8958V19.2191C81.8279 19.3055 81.6488 19.3858 81.3956 19.4599C81.1485 19.534 80.8706 19.5989 80.5618 19.6545C80.2531 19.7101 79.9474 19.7595 79.6448 19.8027C79.3421 19.8459 79.0797 19.883 78.8574 19.9139C78.3571 19.9818 77.9094 20.0929 77.5141 20.2473C77.1189 20.4017 76.807 20.6179 76.5785 20.8958C76.35 21.1675 76.2358 21.5195 76.2358 21.9518C76.2358 22.5694 76.4612 23.0357 76.912 23.3506C77.3628 23.6656 77.9372 23.8231 78.635 23.8231Z" fill="#2F2F2F"/>
<path fill-rule="evenodd" clip-rule="evenodd" d="M41.8722 9.60851C42.1288 7.52564 42.4201 5.43676 43.4072 3.55664C43.6549 3.08468 44.3844 1.83002 45.0854 2.35874C45.7208 2.83811 45.3376 3.97002 45.0798 4.5421C44.2499 6.38416 42.8683 7.85888 41.8722 9.60851Z" stroke="#FD561D" stroke-width="0.69378" stroke-miterlimit="1.5" stroke-linecap="round" stroke-linejoin="round"/>
<path fill-rule="evenodd" clip-rule="evenodd" d="M39.6687 9.18221C38.9255 7.21962 38.2102 5.23551 38.2078 3.11204C38.2072 2.57901 38.2682 1.12897 39.1348 1.27028C39.9204 1.39844 40.1085 2.57859 40.1469 3.20486C40.2707 5.22145 39.7351 7.17 39.6687 9.18221Z" stroke="#FD561D" stroke-width="0.69378" stroke-miterlimit="1.5" stroke-linecap="round" stroke-linejoin="round"/>
<path fill-rule="evenodd" clip-rule="evenodd" d="M42.7096 11.2042C44.3978 9.80963 46.0241 7.89082 48.2164 7.39512C48.808 7.26141 50.4923 7.23686 50.4498 8.21986C50.4084 9.17938 49.466 9.51898 48.6981 9.75548C47.3015 10.1857 45.8529 10.3695 44.434 10.7079C43.854 10.8463 43.2972 11.0956 42.7096 11.2042Z" stroke="#FD561D" stroke-width="0.69378" stroke-miterlimit="1.5" stroke-linecap="round" stroke-linejoin="round"/>
</svg>
